<?xml version="1.0" encoding="UTF-8" standalone="no"?>
<svg
   xmlns:dc="http://purl.org/dc/elements/1.1/"
   xmlns:cc="http://creativecommons.org/ns#"
   xmlns:rdf="http://www.w3.org/1999/02/22-rdf-syntax-ns#"
   xmlns:svg="http://www.w3.org/2000/svg"
   xmlns="http://www.w3.org/2000/svg"
   viewBox="0 0 360 442"
   height="442"
   width="360"
   id="svg2"
   version="1.1">
  <metadata
     id="metadata8">
    <rdf:RDF>
      <cc:Work
         rdf:about="">
        <dc:format>image/svg+xml</dc:format>
        <dc:type
           rdf:resource="http://purl.org/dc/dcmitype/StillImage" />
        <dc:title></dc:title>
      </cc:Work>
    </rdf:RDF>
  </metadata>
  <defs
     id="defs6">
    <clipPath
       id="clipPath864"
       clipPathUnits="userSpaceOnUse">
      <rect
         y="-92.458076"
         x="-378.90332"
         height="441.18527"
         width="359.18524"
         id="rect866"
         style="opacity:0.19500002;vector-effect:none;fill:#ffaaaa;fill-opacity:1;fill-rule:evenodd;stroke:#000000;stroke-width:0.81473953;stroke-linecap:butt;stroke-linejoin:miter;stroke-miterlimit:4;stroke-dasharray:none;stroke-dashoffset:0;stroke-opacity:1" />
    </clipPath>
  </defs>
  <path
     id="path817"
     d="m 211.38489,11.582079 c 1.88464,-0.2827 14.13486,-4.3347 15.83105,-4.14623 6.50204,-0.18847 8.29245,5.46548 11.49635,7.16166 2.45005,2.07312 28.40835,17.22606 30.00752,18.29217 1.59918,1.06612 34.64885,18.657072 35.31517,18.923602 0.66633,0.26654 8.12916,3.0651 8.26242,3.59816 0.13327,0.53306 8.52894,11.327503 8.52894,11.327503 0,0 8.79549,18.790342 8.79549,19.723194 0,0.932851 6.39671,19.989722 6.39671,21.988692 0,1.99898 12.66015,38.24699 13.593,41.04556 0.93286,2.79857 3.4649,9.59507 3.4649,9.59507 0,0 1.44753,2.97984 1.49465,3.7337 0.0471,0.75386 3.43949,8.4338 3.43949,8.4338 l 0.98943,1.69619 -10.22422,6.64338 c 0,0 -49.18934,20.07151 -51.26245,20.82538 -2.07311,0.75385 -3.58083,0.75385 -3.81642,0.0943 -0.23558,-0.65962 -11.65063,-17.03922 -13.51633,-18.77166 -1.86571,-1.73244 -0.0531,6.33298 -0.43006,7.88782 -0.37693,1.55483 -5.70107,17.38588 -5.84241,18.09262 -0.14135,0.70675 8.13817,43.71706 8.27143,45.4495 0.13327,1.73244 1.06613,23.8544 0.53307,25.98665 11.19424,16.25831 19.34454,60.36047 15.59197,92.3525 3.97679,13.73475 4.26448,34.11579 4.13121,35.3818 -0.13326,1.26602 0.79959,6.72988 0.79959,7.12968 0,0.39979 -5.99691,5.53048 -7.72935,6.3967 -1.73244,0.86622 -29.91795,8.12916 -31.51714,8.52895 -1.59916,0.3998 -32.71651,4.531 -35.51506,4.73089 -2.79857,0.19991 -52.2398,1.66582 -56.23774,0.33317 -3.99796,-1.33264 -35.71498,-1.73244 -43.71087,-2.53203 -21.22955,-2.0963 -53.838967,-17.05789 -54.638567,-19.45666 -0.79959,-2.39876 -0.39979,-8.46232 0.0666,-9.59506 0.46643,-1.13275 1.66581,-7.86263 1.86571,-9.32855 -0.86623,-11.59404 1.38803,-38.46921 5.8078,-53.78192 1.22142,-19.44392 1.1636,-27.55863 10.27134,-52.39324 -0.75387,-4.71162 -5.04493,-8.5611 -6.03088,-22.61579 -0.0531,-18.98547 7.16166,-57.67026 7.35013,-60.68569 0.18846,-3.01544 -3.39237,-16.96184 -3.39237,-18.84649 0,-1.88464 -3.95776,-13.94641 -3.95776,-13.94641 l -4.71161,9.80018 c 0,0 -2.17212,1.88612 -4.71163,4.90009 -5.07155,4.08007 -8.11542,11.10603 -9.88869,13.2363 -2.07312,1.1308 -3.1154,4.29094 -7.45008,2.59475 -20.44845,-2.45007 -57.2933364,-27.51591 -58.0471964,-29.40056 -0.75386004,-1.88465 6.03087,-13.19254 9.0463114,-18.09262 3.01544,-4.90009 24.688905,-51.63939 25.631235,-53.900973 0.94232,-2.261572 8.29245,-25.819688 11.68482,-28.458191 3.39237,-2.638511 6.59627,-13.381011 8.66939,-13.381011 2.07311,0 13.381,-5.842414 13.381,-5.842414 0,0 55.974077,-34.112142 58.801047,-35.054472 2.82697,-0.94232 5.65395,-8.10399 8.85785,-7.35013 3.2039,0.75386 71.00415,1.93177 71.00415,1.93177 0,0 1.36639,0.0471 3.25104,-0.23558 z"
     style="opacity:1;fill:#ffaaaa;fill-rule:evenodd;stroke:none;stroke-width:0.39937136;stroke-linecap:butt;stroke-linejoin:miter;stroke-miterlimit:4;stroke-dasharray:none;stroke-opacity:1" />
</svg>
