<?xml version="1.0" encoding="UTF-8" standalone="no"?>
<svg
   xmlns:dc="http://purl.org/dc/elements/1.1/"
   xmlns:cc="http://creativecommons.org/ns#"
   xmlns:rdf="http://www.w3.org/1999/02/22-rdf-syntax-ns#"
   xmlns:svg="http://www.w3.org/2000/svg"
   xmlns="http://www.w3.org/2000/svg"
   version="1.1"
   id="svg2"
   width="360"
   height="442"
   viewBox="0 0 360 442">
  <metadata
     id="metadata8">
    <rdf:RDF>
      <cc:Work
         rdf:about="">
        <dc:format>image/svg+xml</dc:format>
        <dc:type
           rdf:resource="http://purl.org/dc/dcmitype/StillImage" />
        <dc:title></dc:title>
      </cc:Work>
    </rdf:RDF>
  </metadata>
  <defs
     id="defs6">
    <clipPath
       clipPathUnits="userSpaceOnUse"
       id="clipPath927">
      <rect
         style="opacity:0.29100001;vector-effect:none;fill:#000000;fill-opacity:1;fill-rule:evenodd;stroke:#000000;stroke-width:0.81160265;stroke-linecap:butt;stroke-linejoin:miter;stroke-miterlimit:4;stroke-dasharray:none;stroke-dashoffset:0;stroke-opacity:1"
         id="rect929"
         width="359.18839"
         height="441.18839"
         x="-465.10812"
         y="47.012054" />
    </clipPath>
  </defs>
  <path
     style="opacity:1;fill:#ffaaaa;fill-rule:evenodd;stroke:none;stroke-width:0.24641481;stroke-linecap:butt;stroke-linejoin:miter;stroke-miterlimit:4;stroke-dasharray:none;stroke-opacity:1"
     d="m 183.89181,31.260895 c 9.31887,-1.91859 10.72038,-1.79851 20.35076,-6.509507 19.47995,-9.52921 24.66758,-22.5434316 23.84533,-24.59907158 -0.82225,-2.05563002 4.65943,4.38534998 5.48169,4.38534998 5.25353,1.44159 6.97679,5.406589 10.17063,7.1045886 5.61188,2.983563 9.42132,3.351232 12.52302,4.537113 1.37042,0 42.73443,22.599777 44.92711,23.833157 2.19267,1.23338 11.29168,5.72725 12.38802,6.68655 1.09633,0.95929 4.19914,4.29768 6.39181,8.40894 2.19267,4.11127 7.94628,16.049971 13.98872,32.459921 7.78671,26.487894 19.69056,66.897404 19.69056,66.897404 l 1.85007,3.07212 -0.0304,2.48404 3.36706,7.47475 c 0,0 1.22327,2.58832 -3.43617,4.78099 -4.65943,2.19267 -32.47899,13.56718 -35.76799,14.38943 -3.28901,0.82226 -25.38706,5.85856 -26.4834,5.58447 -6.46424,1.43657 -12.92654,-1.56108 -12.92654,-1.56108 0,0 0.46371,0.9879 0.33773,6.81957 -0.41668,7.09141 -3.54101,23.51994 -6.55594,25.57557 -0.44698,4.72048 2.0763,12.69647 2.70759,22.44594 0.50754,7.83815 2.63706,12.75181 1.81481,14.94448 -0.82225,2.19267 -0.50518,32.18424 -1.1904,33.00649 -0.6852,0.82225 5.7059,17.61881 6.52815,20.63374 0.82226,3.01494 5.85149,24.61604 2.32972,33.1642 0.54816,2.05563 4.38534,30.28631 4.52239,34.26053 0.13704,3.97422 -1.62545,26.0398 -0.94023,28.36952 0.6852,2.32971 3.48146,13.0744 3.48146,13.62257 0,0.54817 1.31501,3.6638 -0.74063,4.89717 -3.6483,4.89064 -18.01922,8.17786 -20.62302,8.58898 -5.10645,2.9972 -64.22511,5.09438 -69.43272,5.23143 -5.2076,0.13704 -94.28498,-5.89281 -100.04075,-6.1669 -5.755761,-0.27409 -31.814001,-1.03197 -36.062311,-2.26535 -4.24831,-1.23338 -11.09186,-4.99782 -11.36595,-6.77937 -0.27408,-1.78156 0.45278,-14.51168 0.0417,-15.74506 -0.41113,-1.23338 1.77264,-23.5324 2.32081,-26.54734 0.54818,-3.01493 5.75282,-21.65869 4.79353,-25.76996 -0.95929,-4.11127 -4.98497,-22.60835 -0.39406,-36.24404 1.95215,-5.79817 9.93931,-40.50249 10.62453,-44.88785 0.68521,-4.38534 -1.89477,-14.40725 -0.11322,-19.34076 1.78154,-4.93352 12.15501,-33.47427 11.68414,-34.31005 -2.74084,-4.86499 -5.86708,-22.70052 -5.31892,-26.81178 -0.60462,0.99059 -2.36171,0.93084 -3.20748,0.65938 0,0 -43.03124,-7.8114 -31.24561,-5.34464 11.78562,2.46676 -26.44914,-7.67436 -26.44914,-7.67436 0,0 -13.43012,-2.32971 -14.11534,-3.70014 -0.68521,-1.37042 -3.83717998,-0.82226 -2.05563,-4.93352 1.78155,-4.11127 4.93352,-9.86704 5.48169,-11.78563 0.54817,-1.91859 7.67436,-36.04208 7.67436,-36.04208 l 9.4559,-39.056995 7.67436,-26.44914 c 0,0 3.97423,-9.45591 6.30394,-11.78562 2.32972,-2.32972 27.40843,-14.80055 30.01223,-16.30802 2.6038,-1.50746 22.53676,-11.094207 30.35483,-14.800557 9.250331,-4.38534 13.498641,-7.811403 14.183851,-8.770693 3.9057,-2.8093586 14.38963,-10.69526858 14.38963,-10.69526858 0,0 -2.99182,3.27365998 -0.83421,6.85808998 4.24831,7.0576716 14.139,14.5157336 25.30793,17.8047426 6.75969,1.99059 21.50371,6.794326 32.33003,5.903556 z"
     id="path1319" />
</svg>
